<?xml version="1.0" encoding="UTF-8"?>
<svg width="400px" height="400px" viewBox="0 0 400 400" version="1.1" xmlns="http://www.w3.org/2000/svg" xmlns:xlink="http://www.w3.org/1999/xlink">
    <!-- Generator: Sketch 60.1 (88133) - https://sketch.com -->
    <title>Boxed Logotype/Amediateka_boxed_black_fill</title>
    <desc>Created with Sketch.</desc>
    <g id="Brand" stroke="none" stroke-width="1" fill="none" fill-rule="evenodd">
        <g id="Kit" transform="translate(-400.000000, -1900.000000)" fill="#000000">
            <path d="M757.910057,1900 C769.073004,1900 779.778746,1904.43446 787.672141,1912.32786 C795.565537,1920.22125 800,1930.927 800,1942.08994 L800,1942.08994 L800,2257.91006 C800,2281.15569 781.155691,2300 757.910057,2300 L757.910057,2300 L442.089943,2300 C418.844309,2300 400,2281.15569 400,2257.91006 L400,2257.91006 L400,1942.08994 C400,1918.84431 418.844309,1900 442.089943,1900 L442.089943,1900 Z M625.213295,1961.53846 L574.903704,1961.53846 L522.546629,2111.43671 L522.195632,2112.32194 C522.195632,2112.32194 518.62716,2120.52503 523.073124,2124.12495 C527.519088,2127.72487 534.012536,2130.67562 522.663628,2135.92796 C511.31472,2141.1803 506.868756,2143.06878 505.11377,2144.3081 C503.358784,2145.54742 502.481292,2148.20309 505.523267,2148.79324 C508.565242,2149.38339 508.565242,2152.68824 507.161254,2156.34717 L504.938272,2162.24868 L481.538462,2229.17175 L531.789554,2229.17175 L555.189364,2162.13065 L557.353846,2156.58323 C558.757835,2152.9243 558.757835,2149.61945 555.715859,2149.0293 C552.673884,2148.43915 553.492877,2145.72446 555.306363,2144.54416 C557.119848,2143.36386 561.565812,2141.65242 572.85622,2136.16402 C584.146629,2130.67562 576.892688,2126.95767 573.265717,2124.36101 C569.638746,2121.76435 572.446724,2112.558 572.446724,2112.558 L599.883001,2033.77289 L629.132764,2117.45625 L586.135613,2117.45625 C585.55653,2119.95454 586.362183,2122.57341 588.241595,2124.30199 C591.868566,2127.13472 599.181007,2130.85267 587.832099,2136.10501 C576.483191,2141.35735 572.037227,2143.24583 570.282241,2144.48514 C568.527255,2145.72446 567.649763,2148.38014 570.691738,2148.97029 C573.733713,2149.56044 573.733713,2152.86528 572.329725,2156.52422 C570.925736,2160.18315 569.463248,2164.66829 569.463248,2164.66829 L569.463248,2164.96337 L645.805128,2164.96337 L668.210446,2229.23077 L718.461538,2229.23077 L695.061728,2161.83557 L694.769231,2161.24542 C694.769231,2161.24542 694.242735,2159.17989 692.955745,2155.34392 C691.668756,2151.50794 687.924786,2150.26862 685.116809,2149.0293 C682.308832,2147.78999 681.431339,2144.54416 683.244824,2143.1278 C687.57452,2140.38927 692.112715,2138.00151 696.816714,2135.98698 C708.165622,2130.43956 693.306743,2128.256 686.462298,2123.47578 C682.914107,2121.15895 680.077635,2117.8887 678.272365,2114.03337 C678.103729,2113.67237 677.966708,2113.29718 677.862868,2112.91209 L625.213295,1961.53846 Z" id="Boxed-Logotype/Amediateka_boxed_black_fill"></path>
        </g>
    </g>
</svg>