<svg xmlns="http://www.w3.org/2000/svg" width="1024" height="1024" viewBox="0 0 1024 1024">
  <g fill="none" fill-rule="evenodd">
    <rect width="1024" height="1024" fill="#FFF"/>
    <path fill="#232323" d="M310.744275,457.219014 C290.104691,478.116711 264.241017,488.566555 233.154248,488.566555 C202.576055,488.566555 177.222946,478.372629 157.091937,457.983783 C136.961923,437.594936 126.896916,411.344856 126.896916,379.232547 C126.896916,348.648779 137.216708,323.289934 157.856292,303.15601 C178.496872,283.022086 203.84998,272.955622 233.918604,272.955622 C254.303403,272.955622 272.777313,277.669703 289.340336,287.099855 C305.903358,296.530008 318.771001,309.400623 327.94426,325.7117 C337.117519,342.021782 341.703651,359.8614 341.703651,379.232547 C341.703651,410.324169 331.383859,436.320322 310.744275,457.219014 Z M334.823458,27.524694 L334.823458,204.907162 C316.98651,187.067543 298.004024,174.196928 277.874011,166.296313 C257.743001,158.395697 235.192529,154.445389 210.220603,154.445389 C169.95958,154.445389 133.777109,164.384391 101.670205,184.264388 C69.5633006,204.142393 44.5923698,231.284703 26.7554219,265.691317 C8.91847395,300.097932 0,338.199931 0,379.99632 C0,422.8124 8.7910814,461.424245 26.3732442,495.829864 C43.955407,530.236478 68.9263379,557.378788 101.288027,577.257789 C133.649717,597.137786 170.724931,607.076788 212.513669,607.076788 C273.159491,607.076788 315.457799,587.197787 339.41158,547.439785 L340.939296,547.439785 L340.939296,601.809047 L461.720374,601.809047 L461.720374,0 L334.823458,27.524694 Z" transform="translate(248 202)"/>
  </g>
</svg>
