<?xml version="1.0" encoding="UTF-8" standalone="no"?><!DOCTYPE svg PUBLIC "-//W3C//DTD SVG 1.1//EN" "http://www.w3.org/Graphics/SVG/1.1/DTD/svg11.dtd"><svg width="100%" height="100%" viewBox="0 0 129 40" version="1.1" xmlns="http://www.w3.org/2000/svg" xmlns:xlink="http://www.w3.org/1999/xlink" xml:space="preserve" xmlns:serif="http://www.serif.com/" style="fill-rule:evenodd;clip-rule:evenodd;stroke-linejoin:round;stroke-miterlimit:1.41421;"><g id="видео"><path id="BG" d="M129,4.8c0,-2.649 -2.151,-4.8 -4.8,-4.8l-119.4,0c-2.649,0 -4.8,2.151 -4.8,4.8l0,30.4c0,2.649 2.151,4.8 4.8,4.8l119.4,0c2.649,0 4.8,-2.151 4.8,-4.8l0,-30.4Z" style="fill:#005ff9;"/><g id="_32_-video_w" serif:id="32_@video_w"><g><path d="M108.881,13.821c3.528,0 6.393,2.865 6.393,6.393c0,3.528 -2.865,6.392 -6.393,6.392c-3.528,0 -6.392,-2.864 -6.392,-6.392c0,-3.528 2.864,-6.393 6.392,-6.393Zm0,2.484c2.158,0 3.909,1.751 3.909,3.909c0,2.157 -1.751,3.909 -3.909,3.909c-2.157,0 -3.909,-1.752 -3.909,-3.909c0,-2.158 1.752,-3.909 3.909,-3.909Z" style="fill:#fff;"/><path d="M82.913,23.903l-5.554,0c0.995,-0.908 1.29,-2.724 1.272,-4.723l-0.001,-0.215l0.001,0l0,-2.44l4.282,0l0,7.378Zm4.11,0l-1.626,0l0,-9.769l-9.25,0l0,4.831l0.001,0c0,0.002 0,0.004 0,0.005l0.003,0.666c0.007,1.116 -0.003,4.248 -2.345,4.262c-0.03,0 -0.462,0.005 -0.462,0.005l0,5.116l2.485,0l0,-2.725l8.71,0l0,2.725l2.484,0l0,-2.723l0,-2.393Z" style="fill:#fff;fill-rule:nonzero;"/><path d="M54.609,26.294l-7.226,0l0,-7.134l0,-5.026l6.75,0c1.831,0 3.318,1.492 3.318,3.324c0,1.05 -0.439,1.736 -0.966,2.323c1.065,0.619 1.634,1.692 1.634,2.889c0,1.938 -1.572,3.624 -3.51,3.624Zm-0.503,-5.136l-4.26,0l0,2.745l4.26,0c0.758,0 1.373,-0.615 1.373,-1.373c0,-0.757 -0.615,-1.372 -1.373,-1.372Zm-0.354,-4.633l-3.906,0l0,2.294l3.906,0c0.633,0 1.147,-0.514 1.147,-1.147c0,-0.633 -0.514,-1.147 -1.147,-1.147Z" style="fill:#fff;"/><path d="M62.233,26.294l-2.064,0l0,-12.16l2.485,0l0,8.118l7.056,-8.118l2.064,0l0,12.16l-2.484,0l0,-7.95l-7.057,7.95Z" style="fill:#fff;"/><path d="M99.822,24.161c-0.038,0.044 -0.078,0.09 -0.119,0.132c-1.939,2.043 -3.933,2.313 -5.446,2.313c-3.528,0 -6.393,-2.864 -6.393,-6.392c0,-3.528 2.865,-6.393 6.393,-6.393c2.5,0 4.667,1.439 5.718,3.532c0.154,0.32 0.776,1.77 0.555,4.096l0,0l-9.986,0c0.468,1.569 1.972,2.702 3.713,2.702c1.823,-0.001 3.108,-0.78 3.974,-1.6l1.591,1.61l0,0Zm-1.784,-5.104c-0.396,-1.513 -1.829,-2.748 -3.781,-2.748c-1.952,0 -3.373,1.21 -3.749,2.748l7.53,0Z" style="fill:#fff;"/></g><path d="M30.677,20c0,2.211 -1.799,4.011 -4.01,4.011c-2.212,0 -4.011,-1.8 -4.011,-4.011c0,-2.212 1.799,-4.011 4.011,-4.011c2.211,0 4.01,1.799 4.01,4.011m-4.01,-13.333c-7.352,0 -13.334,5.981 -13.334,13.333c0,7.352 5.982,13.333 13.334,13.333c2.693,0 5.29,-0.802 7.51,-2.319l0.039,-0.026l-1.797,-2.088l-0.03,0.019c-1.709,1.1 -3.688,1.681 -5.722,1.681c-5.845,0 -10.6,-4.755 -10.6,-10.6c0,-5.845 4.755,-10.6 10.6,-10.6c5.844,0 10.599,4.755 10.599,10.6c0,0.757 -0.084,1.524 -0.249,2.279c-0.336,1.375 -1.298,1.797 -2.022,1.741c-0.727,-0.059 -1.578,-0.578 -1.584,-1.846l0,-1.034l0,-1.14c0,-3.719 -3.026,-6.744 -6.744,-6.744c-3.719,0 -6.745,3.025 -6.745,6.744c0,3.719 3.026,6.744 6.745,6.744c1.806,0 3.501,-0.706 4.778,-1.991c0.742,1.156 1.954,1.881 3.331,1.992c0.118,0.009 0.239,0.014 0.359,0.014c0.97,0 1.931,-0.324 2.706,-0.913c0.799,-0.606 1.396,-1.484 1.725,-2.538c0.054,-0.17 0.15,-0.561 0.15,-0.563l0.003,-0.014c0.194,-0.846 0.281,-1.69 0.281,-2.731c0,-7.352 -5.981,-13.333 -13.333,-13.333" style="fill:#ff9e00;fill-rule:nonzero;"/></g></g></svg>