<svg class="pen-main-logo" viewBox="0 0 131 22" fill="none" xmlns="http://www.w3.org/2000/svg"><path d="M13.6966 21.5811L9.57921 15.3372H9.53719H5.41982V21.5811H0V0.0419922H9.49518C14.915 0.0419922 18.5282 2.97533 18.5282 7.62676C18.5282 10.4344 17.1417 12.7391 14.831 14.0801L19.9567 21.6229H13.6966V21.5811ZM5.46183 10.5182H9.45317C11.5539 10.5182 13.1504 9.38675 13.1504 7.58485C13.1504 5.82485 11.5119 4.73533 9.45317 4.73533H5.46183V10.5182Z" fill="#29333D"></path><path d="M42.3922 11.5238C42.3922 18.2286 38.4849 22 32.2248 22C26.0067 22 22.0994 18.2286 22.0994 11.5238V0H27.5612V11.6076C27.5612 14.9181 29.3678 16.9714 32.2248 16.9714C35.0818 16.9714 36.9304 14.9181 36.9304 11.6076V0H42.3922V11.5238Z" fill="#29333D"></path><path d="M65.122 4.81915H58.1897V21.5811H52.8119V4.81915H45.8795V0.0419922H65.164V4.81915H65.122Z" fill="#29333D"></path><path d="M88.9019 11.5238C88.9019 18.2286 84.9946 22 78.7345 22C72.5164 22 68.6091 18.2286 68.6091 11.5238V0H74.0709V11.6076C74.0709 14.9181 75.8775 16.9714 78.7345 16.9714C81.5915 16.9714 83.4401 14.9181 83.4401 11.6076V0H88.9019V11.5238Z" fill="#29333D"></path><path d="M111.001 15.5887C111.001 19.1506 108.102 21.5811 103.186 21.5811H92.2208V0.0419922H102.514C107.262 0.0419922 109.993 2.26295 109.993 5.78295C109.993 7.79438 108.858 9.84771 106.968 10.5182C109.699 11.0629 111.001 13.2839 111.001 15.5887ZM97.6826 4.4001V8.8839H101.758C103.817 8.8839 104.909 7.87819 104.909 6.49534C104.909 5.11248 103.817 4.4001 101.758 4.4001H97.6826ZM105.749 14.8763C105.749 13.5353 104.615 12.781 102.598 12.781H97.6826V17.1391H102.514C104.741 17.1391 105.749 16.1753 105.749 14.8763Z" fill="#29333D"></path><path d="M119.992 4.73542V8.67446H129.656V13.2421H119.992V16.9716H131V21.623H114.53V0.0839844H131V4.73542H119.992Z" fill="#29333D"></path></svg>