<svg width="84" height="106" xmlns="http://www.w3.org/2000/svg" xmlns:xlink="http://www.w3.org/1999/xlink"><defs><linearGradient x1="25.616%" y1="111.119%" x2="100%" y2="-21.032%" id="a"><stop stop-color="#9A38FB" offset="0%"/><stop stop-color="#D13075" offset="100%"/></linearGradient><linearGradient x1="178.648%" y1="102.255%" x2="24.697%" y2="29.036%" id="c"><stop stop-color="#79C5FF" offset="0%"/><stop stop-color="#FFF" stop-opacity="0" offset="100%"/></linearGradient><path id="b" d="M0 32.676l15.254.62L28.296.003z"/><linearGradient x1="76.285%" y1="100%" x2="50%" y2="-10.593%" id="d"><stop stop-color="#0892FF" offset="0%"/><stop stop-color="#A51FFF" offset="100%"/></linearGradient><linearGradient x1="25.099%" y1="50%" x2="100%" y2="30.038%" id="e"><stop stop-color="#005EB1" offset="0%"/><stop stop-color="#8900E4" offset="100%"/></linearGradient><linearGradient x1="0%" y1="100%" x2="64.865%" y2="27.766%" id="f"><stop stop-color="#27A0FF" offset="0%"/><stop stop-color="#BD47FF" offset="100%"/></linearGradient><linearGradient x1="-9.279%" y1="113.247%" x2="67.618%" y2="10.047%" id="g"><stop stop-color="#902EFF" offset="0%"/><stop stop-color="#FF5858" offset="100%"/></linearGradient><linearGradient x1="16.215%" y1="435.885%" x2="36.523%" y2="19.055%" id="i"><stop stop-color="#FFF" offset="0%"/><stop stop-color="#FFF" stop-opacity="0" offset="100%"/></linearGradient><path id="h" d="M28.294 0l-13.19 33.176 46.529-14.72z"/><linearGradient x1="18.846%" y1="94.404%" x2="115.135%" y2="0%" id="j"><stop stop-color="#A966FF" offset="0%"/><stop stop-color="#F14E59" offset="100%"/></linearGradient><linearGradient x1="-207.858%" y1="259.326%" x2="74.142%" y2="25.202%" id="l"><stop stop-color="#FFF" offset="0%"/><stop stop-color="#FFF" stop-opacity="0" offset="100%"/></linearGradient><path id="k" d="M15.115 33.17L52.02 65.928l9.74-47.528z"/><linearGradient x1="-16.109%" y1="100%" x2="173.002%" y2="-62.406%" id="m"><stop stop-color="#9D6DD7" offset="0%"/><stop stop-color="#EC2F48" offset="100%"/></linearGradient><linearGradient x1="-25.611%" y1="116.531%" x2="86.073%" y2="13.797%" id="n"><stop stop-color="#A554FF" offset="0%"/><stop stop-color="#FF788E" offset="100%"/></linearGradient><linearGradient x1="-311.15%" y1="96.104%" x2="71.029%" y2="42.995%" id="p"><stop stop-color="#FFF" offset="0%"/><stop stop-color="#FFF" stop-opacity="0" offset="100%"/></linearGradient><path id="o" d="M52.006 65.927l29.802-18.04-20.175-29.68z"/><linearGradient x1="91.9%" y1="-53.246%" x2="77.601%" y2="132.422%" id="q"><stop stop-color="#FF224E" offset="0%"/><stop stop-color="#FFA2A3" offset="100%"/></linearGradient><linearGradient x1="80.247%" y1="213.667%" x2="84.148%" y2="39.564%" id="s"><stop stop-color="#FFF" offset="0%"/><stop stop-color="#FFF" stop-opacity="0" offset="100%"/></linearGradient><path id="r" d="M28.297.006l38.38 11.093-5.094 7.36z"/><linearGradient x1="50%" y1="8.843%" x2="0%" y2="100%" id="t"><stop stop-color="#FA4F57" offset="0%"/><stop stop-color="#E0ADE8" offset="100%"/></linearGradient><linearGradient x1="-24.89%" y1="35.906%" x2="63.815%" y2="20.874%" id="v"><stop stop-color="#FFF" offset="0%"/><stop stop-color="#FFF" stop-opacity="0" offset="100%"/></linearGradient><path id="u" d="M66.672 11.094l-5.092 7.367L81.8 47.883z"/><linearGradient x1="193.303%" y1="-103.621%" x2="-20.873%" y2="124.953%" id="w"><stop stop-color="#FFF" offset="0%"/><stop stop-color="#FFF" stop-opacity="0" offset="100%"/></linearGradient><linearGradient x1="134.088%" y1="-36.131%" x2="0%" y2="100%" id="x"><stop stop-color="#FFF" stop-opacity="0" offset="0%"/><stop stop-color="#FFF" offset="100%"/></linearGradient><linearGradient x1="-5.596%" y1="112.616%" x2="88.491%" y2="0%" id="y"><stop stop-color="#FFF" stop-opacity="0" offset="0%"/><stop stop-color="#FFF" offset="100%"/></linearGradient><linearGradient x1="197.761%" y1="-65.474%" x2="5.027%" y2="110.324%" id="z"><stop stop-color="#FFF" stop-opacity="0" offset="0%"/><stop stop-color="#FFF" offset="100%"/></linearGradient></defs><g fill="none" fill-rule="evenodd"><g fill="#000"><path d="M18.112 103.186c-.978 1.106-2.66 1.814-4.43 1.814C9.442 105 6 101.586 6 97.381s3.442-7.62 7.682-7.62c1.77 0 3.452.71 4.43 1.815V90.27h3.476v14.222h-3.476v-1.306zm-.105-6.643c-.293-2.313-2.093-3.597-4.296-3.528-2.454.078-4.34 1.896-4.34 4.366 0 2.47 1.886 4.288 4.34 4.366 2.203.069 4.003-1.215 4.296-3.528v-1.676zM34.438 101.49c-1.326.607-3.298.585-3.714-.78-.107-.344-.152-.76-.16-1.294v-6.035h3.718v-3.115h-3.719v-4.92L27.04 85v5.266h-2.978v3.115h2.978v6.048c.014.961.116 2.177.774 3.283.624 1.047 1.929 2.288 4.608 2.288h.07a5.467 5.467 0 0 0 3.199-1.042l-1.253-2.468zM77.986 95.277l.001-.006c-.002-.031-.006-.063-.01-.095a5.653 5.653 0 0 0-.121-.783c-.272-1.25-.917-2.524-2.011-3.347-1.408-1.06-3.004-1.351-4.352-1.272l-.046.003-.026.002A8.147 8.147 0 0 0 66.525 92a4.768 4.768 0 0 0-.945-.955c-1.457-1.096-3.115-1.37-4.492-1.262a7.687 7.687 0 0 0-.157.012c-.425.042-2.239.29-3.425 1.573v-1.097H54v14.252h3.506V97.11c0-2.189 1.85-3.97 4.123-3.97 1.443 0 2.618 1.132 2.618 2.522v8.858h3.506v-7.41c0-2.189 1.85-3.97 4.123-3.97 1.443 0 2.618 1.132 2.618 2.522v8.859H78v-8.86c0-.129-.006-.257-.014-.384M44.103 89.762c4.37 0 7.918 3.414 7.918 7.619S48.473 105 44.103 105s-7.917-3.414-7.917-7.619 3.547-7.62 7.917-7.62zm0 3.25c2.505 0 4.54 1.958 4.54 4.369 0 2.41-2.035 4.368-4.54 4.368s-4.54-1.957-4.54-4.368c0-2.411 2.035-4.368 4.54-4.368z"/></g><g transform="translate(1 1.252)"><use fill="url(#a)" xlink:href="#b"/><use fill="url(#c)" xlink:href="#b"/></g><path fill="url(#d)" d="M0 32.673l12.548 40.155 2.706-39.656z" transform="translate(1 1.252)"/><path fill="url(#e)" d="M52.073 65.906l-39.525 6.922 40.72 6.111z" transform="translate(1 1.252)"/><path fill="url(#f)" d="M12.505 72.828l2.612-39.674 37.215 32.718z" transform="translate(1 1.252)"/><g transform="translate(1 1.252)"><use fill="url(#g)" xlink:href="#h"/><use fill="url(#i)" xlink:href="#h"/></g><g transform="translate(1 1.252)"><use fill="url(#j)" xlink:href="#k"/><use fill-opacity=".5" fill="url(#l)" xlink:href="#k"/></g><path fill="url(#m)" d="M52.015 65.918l1.13 13.021L81.81 47.886z" transform="translate(1 1.252)"/><g transform="translate(1 1.252)"><use fill="url(#n)" xlink:href="#o"/><use fill-opacity=".5" fill="url(#p)" xlink:href="#o"/></g><g transform="translate(1 1.252)"><use fill="url(#q)" xlink:href="#r"/><use fill="url(#s)" xlink:href="#r"/></g><g transform="translate(1 1.252)"><use fill="url(#t)" xlink:href="#u"/><use fill="url(#v)" xlink:href="#u"/></g><path fill="url(#w)" fill-rule="nonzero" opacity=".5" d="M15.112 33.481l.093-.228 46.149-14.675.224.129z" transform="translate(1 1)"/><path fill="url(#x)" fill-rule="nonzero" opacity=".3" d="M52.009 66.17l-.2-.179 9.67-47.614.207.116z" transform="translate(1 1)"/><path fill="url(#y)" fill-rule="nonzero" opacity=".2" d="M51.88 65.956l-.104-.177 29.857-17.948.12.167z" transform="translate(1 1)"/><path fill="url(#z)" fill-rule="nonzero" opacity=".34" d="M15.358 33.338l-.249.081L28.294 0l.195.08z" transform="translate(1 1)"/></g></svg>