<svg width="512" height="512" viewBox="0 0 512 512" fill="none" xmlns="http://www.w3.org/2000/svg">
<rect width="512" height="512" rx="256" fill="black"/>
<path fill-rule="evenodd" clip-rule="evenodd" d="M270.539 198.672L291.778 155.878L291.688 155.884C295.783 147.496 297.803 137.959 297.125 127.983C295.058 97.5421 268.661 74.5439 238.166 76.615C207.671 78.6861 184.626 105.042 186.694 135.483C187.393 145.787 190.881 155.238 196.371 163.152L221.816 200.583C226.694 209.663 236.58 215.541 247.549 214.796C257.966 214.089 266.607 207.595 270.539 198.672Z" fill="#24FF00"/>
<path fill-rule="evenodd" clip-rule="evenodd" d="M312.702 258.404L365.506 266.237L365.464 266.132C375.863 267.596 386.77 266.44 397.209 262.247C429.071 249.448 444.506 213.197 431.685 181.278C418.863 149.36 382.64 133.86 350.777 146.659C339.823 151.06 330.81 158.232 324.22 167.048L291.874 208.517C291.498 208.971 291.136 209.436 290.787 209.91L290.644 210.094L290.657 210.089C284.727 218.29 283.009 229.272 287.065 239.369C291.496 250.4 301.635 257.426 312.702 258.404Z" fill="#24FF00"/>
<path fill-rule="evenodd" clip-rule="evenodd" d="M268.117 313.1L273.77 360.781L273.841 360.727C275.03 370.131 278.619 379.356 284.742 387.456C303.442 412.198 338.695 417.069 363.481 398.335C388.268 379.601 393.201 344.357 374.5 319.615C368.043 311.072 359.613 304.898 350.322 301.247L308.279 283.751C299.095 278.813 287.479 279.341 278.603 286.049C269.981 292.567 266.264 303.164 268.117 313.1Z" fill="#24FF00"/>
<path fill-rule="evenodd" clip-rule="evenodd" d="M198.437 286.022L151.449 310.547L151.533 310.6C142.303 315.505 134.197 322.817 128.244 332.301C110.074 361.251 118.854 399.476 147.855 417.679C176.857 435.882 215.097 427.169 233.268 398.219C239.474 388.331 242.536 377.361 242.723 366.477L244.3 316.051C245.832 304.628 240.742 292.821 230.329 286.285C220.268 279.971 207.936 280.27 198.437 286.022Z" fill="#24FF00"/>
<path fill-rule="evenodd" clip-rule="evenodd" d="M205.163 222.936L176.741 195.108L176.723 195.18C171.135 189.783 164.103 185.732 156.032 183.702C131.39 177.506 106.382 192.494 100.175 217.18C93.968 241.865 108.912 266.899 133.553 273.095C141.625 275.125 149.737 274.882 157.214 272.769L157.213 272.773L194.31 261.99C202.684 260.41 209.803 254.118 212.021 245.297C214.142 236.863 211.221 228.346 205.163 222.936Z" fill="#24FF00"/>
</svg>
